<mxfile host="Electron" agent="Mozilla/5.0 (Windows NT 10.0; Win64; x64) AppleWebKit/537.36 (KHTML, like Gecko) draw.io/26.0.16 Chrome/132.0.6834.196 Electron/34.2.0 Safari/537.36" version="26.0.16">
  <diagram name="Seite-1" id="NoV4sW8veh3W-GaUIUBb">
    <mxGraphModel dx="1149" dy="628" grid="1" gridSize="10" guides="1" tooltips="1" connect="1" arrows="1" fold="1" page="1" pageScale="1" pageWidth="1654" pageHeight="2336" math="0" shadow="0">
      <root>
        <mxCell id="0" />
        <mxCell id="1" parent="0" />
        <mxCell id="dvz_R0P2DsuUB5qaMIKH-1" value="PLayer" style="ellipse;whiteSpace=wrap;html=1;aspect=fixed;" parent="1" vertex="1">
          <mxGeometry x="1120" y="470" width="80" height="80" as="geometry" />
        </mxCell>
        <mxCell id="dvz_R0P2DsuUB5qaMIKH-7" style="edgeStyle=orthogonalEdgeStyle;rounded=0;orthogonalLoop=1;jettySize=auto;html=1;" parent="1" source="dvz_R0P2DsuUB5qaMIKH-2" target="dvz_R0P2DsuUB5qaMIKH-3" edge="1">
          <mxGeometry relative="1" as="geometry" />
        </mxCell>
        <mxCell id="dvz_R0P2DsuUB5qaMIKH-8" value="Coached" style="edgeLabel;html=1;align=center;verticalAlign=middle;resizable=0;points=[];" parent="dvz_R0P2DsuUB5qaMIKH-7" vertex="1" connectable="0">
          <mxGeometry x="-0.0329" y="-2" relative="1" as="geometry">
            <mxPoint as="offset" />
          </mxGeometry>
        </mxCell>
        <mxCell id="dvz_R0P2DsuUB5qaMIKH-31" style="edgeStyle=orthogonalEdgeStyle;rounded=0;orthogonalLoop=1;jettySize=auto;html=1;entryX=-0.006;entryY=0.789;entryDx=0;entryDy=0;entryPerimeter=0;" parent="1" source="dvz_R0P2DsuUB5qaMIKH-2" target="dvz_R0P2DsuUB5qaMIKH-1" edge="1">
          <mxGeometry relative="1" as="geometry" />
        </mxCell>
        <mxCell id="dvz_R0P2DsuUB5qaMIKH-32" value="Spielt in einem Team&amp;nbsp;" style="edgeLabel;html=1;align=center;verticalAlign=middle;resizable=0;points=[];" parent="dvz_R0P2DsuUB5qaMIKH-31" vertex="1" connectable="0">
          <mxGeometry x="0.0158" y="2" relative="1" as="geometry">
            <mxPoint as="offset" />
          </mxGeometry>
        </mxCell>
        <mxCell id="dvz_R0P2DsuUB5qaMIKH-2" value="Team" style="ellipse;whiteSpace=wrap;html=1;aspect=fixed;" parent="1" vertex="1">
          <mxGeometry x="890" y="680" width="80" height="80" as="geometry" />
        </mxCell>
        <mxCell id="dvz_R0P2DsuUB5qaMIKH-27" style="edgeStyle=orthogonalEdgeStyle;rounded=0;orthogonalLoop=1;jettySize=auto;html=1;exitX=0.5;exitY=0;exitDx=0;exitDy=0;entryX=0.5;entryY=1;entryDx=0;entryDy=0;" parent="1" source="dvz_R0P2DsuUB5qaMIKH-2" target="dvz_R0P2DsuUB5qaMIKH-11" edge="1">
          <mxGeometry relative="1" as="geometry">
            <Array as="points">
              <mxPoint x="930" y="500" />
              <mxPoint x="930" y="500" />
            </Array>
          </mxGeometry>
        </mxCell>
        <mxCell id="dvz_R0P2DsuUB5qaMIKH-28" value="Team spielt im Spiel&amp;nbsp;" style="edgeLabel;html=1;align=center;verticalAlign=middle;resizable=0;points=[];" parent="dvz_R0P2DsuUB5qaMIKH-27" vertex="1" connectable="0">
          <mxGeometry x="0.0755" y="3" relative="1" as="geometry">
            <mxPoint as="offset" />
          </mxGeometry>
        </mxCell>
        <mxCell id="dvz_R0P2DsuUB5qaMIKH-3" value="Coach" style="ellipse;whiteSpace=wrap;html=1;aspect=fixed;" parent="1" vertex="1">
          <mxGeometry x="1365" y="680" width="80" height="80" as="geometry" />
        </mxCell>
        <mxCell id="dvz_R0P2DsuUB5qaMIKH-4" value="name: string&lt;div&gt;IBAN: string&lt;/div&gt;&lt;div&gt;&lt;br&gt;&lt;/div&gt;" style="text;html=1;align=center;verticalAlign=middle;resizable=0;points=[];autosize=1;strokeColor=none;fillColor=none;" parent="1" vertex="1">
          <mxGeometry x="1355" y="150" width="90" height="60" as="geometry" />
        </mxCell>
        <mxCell id="dvz_R0P2DsuUB5qaMIKH-11" value="Game" style="ellipse;whiteSpace=wrap;html=1;aspect=fixed;" parent="1" vertex="1">
          <mxGeometry x="890" y="340" width="80" height="80" as="geometry" />
        </mxCell>
        <mxCell id="h53oc9Fmt6OMOpv1Cxtk-4" value="Spieler_id, Name, Position, Geburtsdatum" style="text;html=1;align=center;verticalAlign=middle;resizable=0;points=[];autosize=1;strokeColor=none;fillColor=none;" vertex="1" parent="1">
          <mxGeometry x="1025" y="418" width="250" height="30" as="geometry" />
        </mxCell>
        <mxCell id="h53oc9Fmt6OMOpv1Cxtk-5" value="Game_id, Datum, Ort" style="text;html=1;align=center;verticalAlign=middle;resizable=0;points=[];autosize=1;strokeColor=none;fillColor=none;" vertex="1" parent="1">
          <mxGeometry x="840" y="308" width="140" height="30" as="geometry" />
        </mxCell>
        <mxCell id="h53oc9Fmt6OMOpv1Cxtk-6" value="Team_id, name, stadt,&amp;nbsp;" style="text;html=1;align=center;verticalAlign=middle;resizable=0;points=[];autosize=1;strokeColor=none;fillColor=none;" vertex="1" parent="1">
          <mxGeometry x="850" y="760" width="140" height="30" as="geometry" />
        </mxCell>
        <mxCell id="h53oc9Fmt6OMOpv1Cxtk-7" value="trainer_id, name, erfahrung" style="text;html=1;align=center;verticalAlign=middle;resizable=0;points=[];autosize=1;strokeColor=none;fillColor=none;" vertex="1" parent="1">
          <mxGeometry x="1315" y="640" width="170" height="30" as="geometry" />
        </mxCell>
      </root>
    </mxGraphModel>
  </diagram>
</mxfile>
